<svg width="13" height="13" viewBox="0 0 13 13" fill="none" xmlns="http://www.w3.org/2000/svg">
<path d="M11.4355 3.50586C11.7083 3.19427 12.1825 3.16283 12.4941 3.43555C12.8057 3.70833 12.8372 4.18246 12.5645 4.49414L9.19531 8.34375C9.5433 8.8044 9.75 9.3782 9.75 10C9.75 11.5188 8.51878 12.75 7 12.75C5.48122 12.75 4.25 11.5188 4.25 10C4.25001 8.48122 5.48122 7.25 7 7.25C7.35156 7.25 7.68803 7.31629 7.99707 7.43652L11.4355 3.50586ZM7 0.25C8.22822 0.25 9.38238 0.578554 10.376 1.15332C10.7343 1.3608 10.8568 1.82025 10.6494 2.17871C10.4419 2.53705 9.98248 2.65951 9.62402 2.45215C8.85263 2.00597 7.95741 1.75 7 1.75C4.1005 1.75 1.75 4.1005 1.75 7C1.75 7.41421 1.41421 7.75 1 7.75C0.585786 7.75 0.25 7.41421 0.25 7C0.25 3.27208 3.27208 0.25 7 0.25Z" fill="white"/>
</svg>
