<svg width="20" height="20" viewBox="0 0 20 20" fill="none" xmlns="http://www.w3.org/2000/svg">
<path d="M5.89744 0.769231H5.69231C3.96907 0.769231 3.10745 0.769231 2.44926 1.1046C1.8703 1.39959 1.39959 1.8703 1.1046 2.44926C0.769231 3.10745 0.769231 3.96907 0.769231 5.69231V5.89744M5.89744 19.2308H5.69231C3.96907 19.2308 3.10745 19.2308 2.44926 18.8954C1.8703 18.6004 1.39959 18.1297 1.1046 17.5507C0.769231 16.8925 0.769231 16.0309 0.769231 14.3077V14.1026M19.2308 5.89744V5.69231C19.2308 3.96907 19.2308 3.10745 18.8954 2.44926C18.6004 1.8703 18.1297 1.39959 17.5507 1.1046C16.8925 0.769231 16.0309 0.769231 14.3077 0.769231H14.1026M19.2308 14.1026V14.3077C19.2308 16.0309 19.2308 16.8925 18.8954 17.5507C18.6004 18.1297 18.1297 18.6004 17.5507 18.8954C16.8925 19.2308 16.0309 19.2308 14.3077 19.2308H14.1026M5.38462 5.89744V7.4359M14.6154 5.89744V7.4359M8.97436 10.6155C9.79487 10.6155 10.5128 9.89754 10.5128 9.07702V5.89744M13.2823 13.282C11.4361 15.1282 8.46174 15.1282 6.61558 13.282" stroke="#333333" stroke-width="1.5" stroke-linecap="round" stroke-linejoin="round"/>
</svg>
