<svg width="25" height="24" viewBox="0 0 25 24" fill="none" xmlns="http://www.w3.org/2000/svg">
<path fill-rule="evenodd" clip-rule="evenodd" d="M18.5111 3C19.0634 3 19.5111 3.44772 19.5111 4V20C19.5111 20.5523 19.0634 21 18.5111 21C17.9588 21 17.5111 20.5523 17.5111 20V4C17.5111 3.44772 17.9588 3 18.5111 3Z" fill="#333333"/>
<path fill-rule="evenodd" clip-rule="evenodd" d="M6.51111 15C7.06339 15 7.51111 15.4477 7.51111 16V20C7.51111 20.5523 7.06339 21 6.51111 21C5.95883 21 5.51111 20.5523 5.51111 20V16C5.51111 15.4477 5.95883 15 6.51111 15Z" fill="#333333"/>
<path fill-rule="evenodd" clip-rule="evenodd" d="M12.5111 9C13.0634 9 13.5111 9.44772 13.5111 10V20C13.5111 20.5523 13.0634 21 12.5111 21C11.9588 21 11.5111 20.5523 11.5111 20V10C11.5111 9.44772 11.9588 9 12.5111 9Z" fill="#333333"/>
</svg>
