<svg width="25" height="24" viewBox="0 0 25 24" fill="none" xmlns="http://www.w3.org/2000/svg">
<path d="M12.375 7H7.875C7.21196 7 6.57607 6.73661 6.10723 6.26777C5.63839 5.79893 5.375 5.16304 5.375 4.5C5.375 3.83696 5.63839 3.20107 6.10723 2.73223C6.57607 2.26339 7.21196 2 7.875 2C11.375 2 12.375 7 12.375 7ZM12.375 7H16.875C17.538 7 18.1739 6.73661 18.6428 6.26777C19.1116 5.79893 19.375 5.16304 19.375 4.5C19.375 3.83696 19.1116 3.20107 18.6428 2.73223C18.1739 2.26339 17.538 2 16.875 2C13.375 2 12.375 7 12.375 7ZM12.375 7L12.375 22M2.375 14H22.375M2.375 10.2L2.375 18.8C2.375 19.9201 2.375 20.4802 2.59299 20.908C2.78473 21.2843 3.09069 21.5903 3.46702 21.782C3.89484 22 4.45489 22 5.575 22L19.175 22C20.2951 22 20.8552 22 21.283 21.782C21.6593 21.5903 21.9653 21.2843 22.157 20.908C22.375 20.4802 22.375 19.9201 22.375 18.8V10.2C22.375 9.0799 22.375 8.51984 22.157 8.09202C21.9653 7.7157 21.6593 7.40974 21.283 7.21799C20.8552 7 20.2951 7 19.175 7L5.575 7C4.4549 7 3.89484 7 3.46702 7.21799C3.0907 7.40973 2.78473 7.71569 2.59299 8.09202C2.375 8.51984 2.375 9.07989 2.375 10.2Z" stroke="#333333" stroke-width="1.5" stroke-linecap="round" stroke-linejoin="round"/>
</svg>
