<svg width="25" height="24" viewBox="0 0 25 24" fill="none" xmlns="http://www.w3.org/2000/svg">
<path d="M14.875 9H12.375C11.5466 9 10.875 9.67157 10.875 10.5C10.875 11.3284 11.5466 12 12.375 12H13.375C14.2034 12 14.875 12.6716 14.875 13.5C14.875 14.3284 14.2034 15 13.375 15H10.875M12.875 8V9M12.875 15V16M18.875 12H18.885M6.875 12H6.885M2.875 8.2L2.875 15.8C2.875 16.9201 2.875 17.4802 3.09299 17.908C3.28473 18.2843 3.59069 18.5903 3.96702 18.782C4.39484 19 4.95489 19 6.075 19L19.675 19C20.7951 19 21.3552 19 21.783 18.782C22.1593 18.5903 22.4653 18.2843 22.657 17.908C22.875 17.4802 22.875 16.9201 22.875 15.8V8.2C22.875 7.0799 22.875 6.51984 22.657 6.09202C22.4653 5.7157 22.1593 5.40974 21.783 5.21799C21.3552 5 20.7951 5 19.675 5L6.075 5C4.9549 5 4.39484 5 3.96702 5.21799C3.5907 5.40973 3.28473 5.71569 3.09299 6.09202C2.875 6.51984 2.875 7.07989 2.875 8.2ZM19.375 12C19.375 12.2761 19.1511 12.5 18.875 12.5C18.5989 12.5 18.375 12.2761 18.375 12C18.375 11.7239 18.5989 11.5 18.875 11.5C19.1511 11.5 19.375 11.7239 19.375 12ZM7.375 12C7.375 12.2761 7.15114 12.5 6.875 12.5C6.59886 12.5 6.375 12.2761 6.375 12C6.375 11.7239 6.59886 11.5 6.875 11.5C7.15114 11.5 7.375 11.7239 7.375 12Z" stroke="#333333" stroke-width="1.5" stroke-linecap="round" stroke-linejoin="round"/>
</svg>
