<svg width="25" height="24" viewBox="0 0 25 24" fill="none" xmlns="http://www.w3.org/2000/svg">
<path d="M21.625 5C21.625 6.65685 17.5956 8 12.625 8C7.65444 8 3.625 6.65685 3.625 5M21.625 5C21.625 3.34315 17.5956 2 12.625 2C7.65444 2 3.625 3.34315 3.625 5M21.625 5V19C21.625 20.66 17.625 22 12.625 22C7.625 22 3.625 20.66 3.625 19V5M21.625 9.72021C21.625 11.3802 17.625 12.7202 12.625 12.7202C7.625 12.7202 3.625 11.3802 3.625 9.72021M21.625 14.44C21.625 16.1 17.625 17.44 12.625 17.44C7.625 17.44 3.625 16.1 3.625 14.44" stroke="#333333" stroke-width="1.5" stroke-linecap="round" stroke-linejoin="round"/>
</svg>
