<svg width="136" height="128" viewBox="0 0 136 128" fill="none" xmlns="http://www.w3.org/2000/svg">
<path d="M66.9684 108.273C92.215 108.273 112.683 87.8051 112.683 62.4684C112.683 37.1317 92.215 16.6639 66.9684 16.6639C41.7219 16.6639 21.2542 37.1317 21.2542 62.4684C21.2542 87.8051 41.7219 108.273 66.9684 108.273Z" fill="#EAEEF9"/>
<path d="M33.3365 32.8031H98.3464C100.961 32.8031 102.945 34.7868 102.945 37.4016V78.6075C102.945 81.2224 100.961 83.206 98.3464 83.206H33.3365C30.7217 83.206 28.738 81.2224 28.738 78.6075V37.4016C28.738 34.7868 30.902 32.8031 33.3365 32.8031Z" fill="url(#paint0_linear_50_6606)"/>
<path d="M104.207 59.2222V79.5096C104.207 82.1244 102.133 84.2884 99.4282 84.2884H32.615C30.0002 84.2884 27.8362 82.1244 27.8362 79.5096V57.509" stroke="#1676EE" stroke-width="3" stroke-linecap="round" stroke-linejoin="round"/>
<path d="M98.5266 47.8611H77.4277C75.3539 47.8611 73.3702 48.5824 71.8374 49.8447L66.3372 54.3531C64.8044 55.6154 62.8208 56.3367 60.7469 56.3367H36.943C34.5086 56.3367 32.5249 58.3204 32.5249 60.7549C32.5249 60.9352 32.5249 61.2057 32.6151 61.386L37.0332 84.6489C37.3939 86.8129 39.1972 88.4359 41.4514 88.4359H92.3953C94.5593 88.4359 96.4528 86.9031 96.8134 84.7391L102.945 52.9104C103.396 50.4759 101.773 48.3119 99.3381 47.8611C98.9774 47.8611 98.7069 47.8611 98.5266 47.8611Z" fill="white"/>
<g filter="url(#filter0_d_50_6606)">
<path d="M107.994 41.6396H80.5836C77.8786 41.6396 75.3539 42.5413 73.2801 44.2544L66.0668 50.1152C64.0831 51.7382 61.4683 52.7301 58.7633 52.7301H27.7461C24.5903 52.7301 22.0657 55.3449 22.0657 58.4105C22.0657 58.681 22.0657 58.9515 22.1558 59.222L27.8363 89.608C28.2871 92.4934 30.7216 94.5672 33.5168 94.5672H99.8791C102.764 94.5672 105.109 92.5835 105.56 89.6982L113.584 48.1316C114.125 44.9758 112.052 42.1806 108.896 41.5494C108.625 41.6396 108.265 41.6396 107.994 41.6396Z" fill="url(#paint1_linear_50_6606)"/>
</g>
<path d="M54.9762 73.108C56.5992 73.108 57.9517 71.7555 57.9517 70.1325C57.9517 68.5095 56.5992 67.157 54.9762 67.157C53.3532 67.157 52.0007 68.5095 52.0007 70.1325C52.0007 71.7555 53.3532 73.108 54.9762 73.108Z" fill="#989FB0"/>
<path d="M78.1491 73.0173C79.7721 73.0173 81.1246 71.6648 81.1246 70.0418C81.1246 68.4188 79.7721 67.0663 78.1491 67.0663C76.5261 67.0663 75.1736 68.4188 75.1736 70.0418C75.1736 71.7549 76.5261 73.0173 78.1491 73.0173Z" fill="#989FB0"/>
<path d="M112.412 92.4935C112.052 94.0263 111.511 95.6493 110.879 97.0018C109.166 100.338 106.461 102.953 103.125 104.666C99.6988 106.379 95.6413 107.1 91.5838 106.199C82.0262 104.215 75.8949 94.8378 77.8786 85.2802C79.8622 75.7225 89.1494 69.5011 98.707 71.5749C102.133 72.2962 105.109 74.0094 107.633 76.3537C111.871 80.5915 113.675 86.7228 112.412 92.4935Z" fill="url(#paint2_linear_50_6606)"/>
<path d="M100.781 87.3545H96.7233V83.297C96.7233 82.4855 96.0922 81.7642 95.1905 81.7642C94.379 81.7642 93.6577 82.3953 93.6577 83.297V87.3545H89.6002C88.7887 87.3545 88.0674 87.9856 88.0674 88.8873C88.0674 89.789 88.6986 90.4201 89.6002 90.4201H93.6577V94.4776C93.6577 95.2891 94.2889 96.0104 95.1905 96.0104C96.002 96.0104 96.7233 95.3793 96.7233 94.4776V90.4201H100.781C101.592 90.4201 102.314 89.789 102.314 88.8873C102.314 87.9856 101.592 87.3545 100.781 87.3545Z" fill="white"/>
<path d="M62.9109 51.739C59.6649 45.4273 58.9436 37.8533 61.1076 31.0007C63.1814 24.1481 68.1405 18.2873 74.2718 14.9511C76.1653 13.9593 78.3293 13.1478 80.4933 13.0576C82.6573 12.9675 85.0016 13.6888 86.4443 15.4921C87.8869 17.1151 88.1574 19.8201 86.9853 21.6234C85.723 23.3366 83.1983 24.0579 81.1245 23.5169C77.7883 22.8858 75.0833 20.2709 74.2718 17.1151C73.4603 13.9593 74.5423 10.2625 77.067 8.18866C78.69 6.746 80.9441 5.9345 83.018 5.30334C93.1166 2.32785 104.117 1.96719 114.396 4.22134" stroke="#C9D4E2" stroke-width="2" stroke-miterlimit="10" stroke-dasharray="4 4"/>
<path d="M69.4031 76.2634H63.8127V77.6159H69.4031V76.2634Z" fill="#989FB0"/>
<path d="M119.806 1.87651C119.716 3.229 119.625 4.49133 118.634 4.76183C117.642 5.03233 117.191 4.13066 116.56 2.86834C115.929 1.69617 116.289 0.433848 117.371 0.163349C118.363 -0.10715 119.986 0.253515 119.806 1.87651Z" fill="#DAE2EB"/>
<path d="M118.724 8.36894C118.994 6.74595 119.265 5.84429 118.363 5.39346C117.371 4.94263 116.74 5.75412 115.658 6.83612C114.757 7.82795 115.298 9.27061 116.199 9.72144C117.281 10.2624 118.453 9.72144 118.724 8.36894Z" fill="#DAE2EB"/>
<path d="M119.986 5.39264C119.896 6.02381 119.445 6.47464 118.814 6.5648C118.544 6.5648 118.273 6.5648 117.912 6.5648C116.65 6.38447 115.658 5.57298 115.748 4.76148C115.839 3.94998 117.011 3.49915 118.453 3.67948C118.724 3.67948 118.994 3.76965 119.175 3.85982C119.716 4.04015 120.076 4.67131 119.986 5.39264C119.986 5.39264 119.986 5.30248 119.986 5.39264Z" fill="#989FB0"/>
<path d="M19.3606 30.7293C19.3606 29.1965 19.3606 27.6636 20.4426 27.2128C21.6148 26.762 22.2459 27.844 23.1476 29.3768C23.9591 30.7293 23.5984 32.1719 22.4262 32.6228C21.4344 33.0736 19.3606 32.8031 19.3606 30.7293Z" fill="#DAE2EB"/>
<path d="M19.9917 23.1555C19.8114 25.049 19.5409 26.1309 20.7131 26.5818C21.8852 27.0326 22.5164 26.0408 23.6885 24.5981C24.5902 23.3358 23.959 21.7128 22.7869 21.262C21.6147 20.8111 20.1721 21.6226 19.9917 23.1555Z" fill="#DAE2EB"/>
<path d="M19 26.7625C19 26.0412 19.541 25.5002 20.1722 25.41C20.4427 25.3199 20.8033 25.3199 21.164 25.41C22.6066 25.5002 23.869 26.3117 23.7788 27.2134C23.6886 28.115 22.5165 28.7462 20.9837 28.5659C20.7132 28.5659 20.4427 28.4757 20.1722 28.3855C19.4508 28.2954 19 27.574 19 26.7625Z" fill="#989FB0"/>
<path d="M25.1313 27.0331C34.5988 27.0331 52.0911 32.5332 52.3616 52.7305" stroke="#C9D4E2" stroke-width="2" stroke-miterlimit="10" stroke-dasharray="4 4"/>
<defs>
<filter id="filter0_d_50_6606" x="0.0656738" y="30.5494" width="135.604" height="97.0177" filterUnits="userSpaceOnUse" color-interpolation-filters="sRGB">
<feFlood flood-opacity="0" result="BackgroundImageFix"/>
<feColorMatrix in="SourceAlpha" type="matrix" values="0 0 0 0 0 0 0 0 0 0 0 0 0 0 0 0 0 0 127 0" result="hardAlpha"/>
<feOffset dy="11"/>
<feGaussianBlur stdDeviation="11"/>
<feColorMatrix type="matrix" values="0 0 0 0 0.397708 0 0 0 0 0.47749 0 0 0 0 0.575 0 0 0 0.27 0"/>
<feBlend mode="normal" in2="BackgroundImageFix" result="effect1_dropShadow_50_6606"/>
<feBlend mode="normal" in="SourceGraphic" in2="effect1_dropShadow_50_6606" result="shape"/>
</filter>
<linearGradient id="paint0_linear_50_6606" x1="65.8473" y1="34.554" x2="65.8473" y2="62.8447" gradientUnits="userSpaceOnUse">
<stop stop-color="#B0BACC"/>
<stop offset="1" stop-color="#969EAE"/>
</linearGradient>
<linearGradient id="paint1_linear_50_6606" x1="67.838" y1="40.3231" x2="67.838" y2="95.1387" gradientUnits="userSpaceOnUse">
<stop stop-color="#FDFEFF"/>
<stop offset="0.9964" stop-color="#ECF0F5"/>
</linearGradient>
<linearGradient id="paint2_linear_50_6606" x1="77.4897" y1="88.8863" x2="112.814" y2="88.8863" gradientUnits="userSpaceOnUse">
<stop stop-color="#B0BACC"/>
<stop offset="1" stop-color="#969EAE"/>
</linearGradient>
</defs>
</svg>
