<svg width="25" height="24" viewBox="0 0 25 24" fill="none" xmlns="http://www.w3.org/2000/svg">
<path d="M21.125 18V12C21.125 7.02944 17.0956 3 12.125 3C7.15444 3 3.125 7.02944 3.125 12V18M5.625 21C4.24429 21 3.125 19.8807 3.125 18.5V16.5C3.125 15.1193 4.24429 14 5.625 14C7.00571 14 8.125 15.1193 8.125 16.5V18.5C8.125 19.8807 7.00571 21 5.625 21ZM18.625 21C17.2443 21 16.125 19.8807 16.125 18.5V16.5C16.125 15.1193 17.2443 14 18.625 14C20.0057 14 21.125 15.1193 21.125 16.5V18.5C21.125 19.8807 20.0057 21 18.625 21Z" stroke="#333333" stroke-width="1.5" stroke-linecap="round" stroke-linejoin="round"/>
</svg>
