<svg width="36" height="36" viewBox="0 0 36 36" fill="none" xmlns="http://www.w3.org/2000/svg">
<rect width="36" height="36" rx="18" fill="#FFF0F1"/>
<path d="M10.9814 5.92188C11.9515 5.81733 13.1887 6.07718 14.0742 6.96387C14.9642 7.8553 15.4798 9.36032 15.04 11.7061L14.9395 12.1855C14.1039 15.7927 12.4256 19.1072 10.9834 22.3916H12.1777C14.1036 19.0558 15.8224 15.7607 15.8574 15.6934L15.9141 15.6045C16.0627 15.4146 16.3196 15.336 16.5537 15.4199L16.6494 15.4648C16.8279 15.5694 16.9364 15.7639 16.9307 15.9707L16.918 16.0742C16.737 16.9187 16.6667 17.5291 16.6523 17.9561C16.6424 18.2509 16.6596 18.4554 16.6836 18.5879C16.8056 18.4774 16.9832 18.2776 17.2031 17.9443C17.5023 17.4908 17.8775 16.7978 18.3018 15.7676L18.5635 15.1035C19.2008 13.4142 20.0082 10.7422 20.6533 6.87012L20.6807 6.76562C20.7671 6.53231 20.9994 6.37704 21.2568 6.39648L21.3633 6.41504C21.6038 6.48014 21.7794 6.69841 21.7832 6.95605L21.7891 7.90918C21.791 9.51437 21.7558 12.8133 21.4795 15.3623C21.5217 15.3549 21.5651 15.3497 21.6094 15.3467L21.7764 15.3418C22.6014 15.3482 23.3426 15.8241 23.9814 16.7227L24.1299 16.9102C24.4699 17.2985 24.9266 17.5604 25.4248 17.6631C25.4644 16.3288 26.2286 14.9422 27.0654 14.2246C27.494 13.8571 27.966 13.6445 28.3818 13.7422C28.808 13.8426 29.1206 14.2537 29.2617 14.999L29.2842 15.1406C29.4746 16.5877 28.46 18.3089 26.7402 18.7451C26.8034 18.9006 26.8824 19.0455 26.9766 19.1768L27.0479 19.2627C27.1303 19.3476 27.2444 19.4314 27.3828 19.5107C27.5664 19.6159 27.7874 19.7093 28.0205 19.7812C28.4905 19.9263 28.9934 19.9812 29.335 19.8984L29.4492 19.8828C29.7136 19.8735 29.9568 20.0503 30.0215 20.3174L30.0371 20.4316C30.0451 20.6583 29.9163 20.8694 29.7109 20.9658L29.6025 21.0039C29.0737 21.1318 28.3544 21.0718 27.6895 20.8691C27.1084 20.692 26.5508 20.4009 26.1924 20.0127L26.0518 19.8398C25.837 19.5405 25.677 19.1988 25.5713 18.834C24.6334 18.7464 23.7646 18.2797 23.1719 17.5371L23.0547 17.3809C22.752 16.955 22.3777 16.6174 22.041 16.5146C21.8765 16.4646 21.7262 16.4724 21.5947 16.5459C21.4948 16.6019 21.3965 16.7004 21.3096 16.8584L21.2266 17.0371C21.1323 17.2758 20.893 17.4177 20.6455 17.3945L20.54 17.375C20.2584 17.2936 20.0842 17.0109 20.1387 16.7227L20.2256 16.21C20.3784 15.2022 20.4746 13.9521 20.5381 12.6992C20.2533 13.7113 19.9743 14.561 19.7188 15.2588L19.4072 16.0693C19.1616 16.6763 18.7943 17.5053 18.3643 18.2275C18.1493 18.5886 17.9165 18.9252 17.6738 19.1953C17.4323 19.4642 17.1739 19.6736 16.9053 19.7695L16.9062 19.7705C16.6144 19.8748 16.3155 19.8455 16.0742 19.6865L15.9746 19.6104C15.7463 19.4103 15.6103 19.0993 15.5498 18.6846C14.975 19.7453 14.2582 21.0483 13.4893 22.3916H28.5898C29.4226 22.3916 30.0996 23.0686 30.0996 23.9014L30.0918 24.0557C30.0143 24.8162 29.3705 25.4111 28.5898 25.4111H11.7041C11.0685 26.4439 10.4441 27.4074 9.87695 28.1973C9.37457 28.897 8.91301 29.4663 8.52734 29.8271L8.36719 29.9688C7.95919 30.3051 7.35131 29.9489 7.44531 29.4287L7.54883 28.8965C7.79553 27.705 8.13954 26.5454 8.54102 25.4111H7.41016C6.57741 25.4111 5.90039 24.7341 5.90039 23.9014C5.9004 23.0686 6.57742 22.3916 7.41016 22.3916H9.74121C11.2233 18.9629 12.9875 15.5703 13.8311 11.9287L13.9189 11.5156C14.3027 9.5052 13.8858 8.3636 13.2471 7.74023C12.6463 7.15394 11.8274 7.00409 11.2197 7.04297L10.9736 7.07031C9.69841 7.27845 8.65902 8.34581 8.41602 9.71875C8.17415 11.0859 8.72203 12.7697 10.6562 14.1982L10.7412 14.2754C10.8932 14.4439 10.9304 14.6887 10.835 14.8945L10.7764 14.9932C10.6132 15.2142 10.32 15.283 10.0801 15.1719L9.98047 15.1133C7.64498 13.3885 6.95812 11.2447 7.30664 9.45117C7.65407 7.66336 9.03078 6.23433 10.791 5.94727L10.9814 5.92188ZM9.75195 25.4111C9.52212 26.0374 9.30897 26.6691 9.12109 27.3076C9.51204 26.75 9.93412 26.1057 10.3691 25.4111H9.75195ZM7.41016 23.5293C7.20485 23.5293 7.03712 23.696 7.03711 23.9014C7.03711 24.1067 7.20482 24.2744 7.41016 24.2744H8.96484C9.06208 24.0249 9.16151 23.7766 9.2627 23.5293H7.41016ZM12.3916 24.2744H28.5898C28.7952 24.2744 28.9629 24.1067 28.9629 23.9014C28.9629 23.6961 28.7952 23.5293 28.5898 23.5293H12.832C12.686 23.7787 12.5388 24.0273 12.3916 24.2744ZM10.1895 24.2744H11.0674C11.2155 24.0288 11.3644 23.7801 11.5127 23.5293H10.4941C10.3905 23.7767 10.2893 24.0253 10.1895 24.2744ZM27.9795 14.9365C27.9177 14.9827 27.8445 15.0471 27.7637 15.1279C27.6018 15.2899 27.4137 15.515 27.2354 15.7832C26.9001 16.2876 26.6067 16.9375 26.5654 17.6123C27.221 17.409 27.6981 16.919 27.957 16.3779C28.218 15.8325 28.2471 15.2609 28.0449 14.8916C28.0262 14.9031 28.0043 14.918 27.9795 14.9365Z" fill="#D93843" stroke="#D93843" stroke-width="0.2"/>
</svg>
