<svg width="20" height="20" viewBox="0 0 20 20" fill="none" xmlns="http://www.w3.org/2000/svg">
<path d="M19.2308 16.1538V10C19.2308 4.90199 15.098 0.769231 10 0.769231C4.90199 0.769231 0.769231 4.90199 0.769231 10V16.1538M3.33333 19.2308C1.91722 19.2308 0.769231 18.0828 0.769231 16.6667V14.6154C0.769231 13.1993 1.91722 12.0513 3.33333 12.0513C4.74945 12.0513 5.89744 13.1993 5.89744 14.6154V16.6667C5.89744 18.0828 4.74945 19.2308 3.33333 19.2308ZM16.6667 19.2308C15.2506 19.2308 14.1026 18.0828 14.1026 16.6667V14.6154C14.1026 13.1993 15.2506 12.0513 16.6667 12.0513C18.0828 12.0513 19.2308 13.1993 19.2308 14.6154V16.6667C19.2308 18.0828 18.0828 19.2308 16.6667 19.2308Z" stroke="#333333" stroke-width="1.5" stroke-linecap="round" stroke-linejoin="round"/>
</svg>
