<svg width="20" height="20" viewBox="0 0 20 20" fill="none" xmlns="http://www.w3.org/2000/svg">
<path d="M15.1282 8.97436V5.89744C15.1282 3.06521 12.8322 0.769231 10 0.769231C7.16777 0.769231 4.87179 3.06521 4.87179 5.89744V8.97436M5.69231 19.2308H14.3077C16.0309 19.2308 16.8925 19.2308 17.5507 18.8954C18.1297 18.6004 18.6004 18.1297 18.8954 17.5507C19.2308 16.8925 19.2308 16.0309 19.2308 14.3077V13.8974C19.2308 12.1742 19.2308 11.3126 18.8954 10.6544C18.6004 10.0754 18.1297 9.60472 17.5507 9.30972C16.8925 8.97436 16.0309 8.97436 14.3077 8.97436H5.69231C3.96907 8.97436 3.10745 8.97436 2.44926 9.30972C1.8703 9.60472 1.39959 10.0754 1.1046 10.6544C0.769231 11.3126 0.769231 12.1742 0.769231 13.8974V14.3077C0.769231 16.0309 0.769231 16.8925 1.1046 17.5507C1.39959 18.1297 1.8703 18.6004 2.44926 18.8954C3.10745 19.2308 3.96907 19.2308 5.69231 19.2308Z" stroke="#333333" stroke-width="1.5" stroke-linecap="round" stroke-linejoin="round"/>
</svg>
