<svg width="14" height="14" viewBox="0 0 14 14" fill="none" xmlns="http://www.w3.org/2000/svg">
<path d="M5.77734 1.40259C6.5788 1.34932 7.41664 1.3492 8.21973 1.40259C10.7312 1.56962 12.7237 3.59686 12.8877 6.13208C12.9183 6.6064 12.9183 7.09721 12.8877 7.57153C12.7238 10.1069 10.7313 12.134 8.21973 12.301C7.41664 12.3544 6.5788 12.3543 5.77734 12.301C5.46663 12.2804 5.12784 12.2069 4.83008 12.0842C4.69949 12.0304 4.61085 11.9938 4.5459 11.97C4.50117 12.0007 4.441 12.0449 4.35449 12.1086C3.91871 12.4299 3.36853 12.655 2.58789 12.636H2.5625C2.41209 12.6324 2.25187 12.628 2.12109 12.6028C1.96341 12.5723 1.76764 12.4964 1.64551 12.2883C1.5126 12.0617 1.56563 11.8321 1.61719 11.6877C1.66584 11.5515 1.75075 11.392 1.83691 11.2288L1.84863 11.2063C2.10511 10.7203 2.1762 10.3227 2.03906 10.0579C1.5814 9.36691 1.16939 8.51533 1.1084 7.57153C1.07775 7.09723 1.07775 6.60638 1.1084 6.13208C1.27233 3.59678 3.26574 1.56954 5.77734 1.40259ZM4.79883 6.45044C4.49507 6.45044 4.24805 6.69649 4.24805 7.00024C4.24818 7.30388 4.49516 7.55005 4.79883 7.55005H4.80371C5.1072 7.54984 5.35338 7.30375 5.35352 7.00024C5.35352 6.69662 5.10729 6.45065 4.80371 6.45044H4.79883ZM6.99609 6.45044C6.69234 6.45044 6.44629 6.69649 6.44629 7.00024C6.44643 7.30388 6.69242 7.55005 6.99609 7.55005H7.00098C7.30459 7.54998 7.55064 7.30384 7.55078 7.00024C7.55078 6.69653 7.30467 6.45051 7.00098 6.45044H6.99609ZM9.19336 6.45044C8.88964 6.45049 8.64355 6.69652 8.64355 7.00024C8.64369 7.30385 8.88973 7.55 9.19336 7.55005H9.19824C9.50191 7.55005 9.74791 7.30388 9.74805 7.00024C9.74805 6.69649 9.502 6.45044 9.19824 6.45044H9.19336Z" fill="white"/>
</svg>
