<svg width="19" height="22" viewBox="0 0 19 22" fill="none" xmlns="http://www.w3.org/2000/svg">
<path d="M5.5 21V19M7 14V6M13.5 21V19M12 14V6M6.3 19H12.7C14.3802 19 15.2202 19 15.862 18.673C16.4265 18.3854 16.8854 17.9265 17.173 17.362C17.5 16.7202 17.5 15.8802 17.5 14.2V5.8C17.5 4.11984 17.5 3.27976 17.173 2.63803C16.8854 2.07354 16.4265 1.6146 15.862 1.32698C15.2202 1 14.3802 1 12.7 1H6.3C4.61984 1 3.77976 1 3.13803 1.32698C2.57354 1.6146 2.1146 2.07354 1.82698 2.63803C1.5 3.27976 1.5 4.11984 1.5 5.8V14.2C1.5 15.8802 1.5 16.7202 1.82698 17.362C2.1146 17.9265 2.57354 18.3854 3.13803 18.673C3.77976 19 4.61984 19 6.3 19Z" stroke="#A1A1A1" stroke-width="1.5" stroke-linecap="round" stroke-linejoin="round"/>
</svg>
