<svg width="23" height="21" viewBox="0 0 23 21" fill="none" xmlns="http://www.w3.org/2000/svg">
<path fill-rule="evenodd" clip-rule="evenodd" d="M10.991 0.315887C11.3247 0.228037 11.6755 0.228037 12.0092 0.315887C12.3965 0.417818 12.725 0.666528 12.9871 0.864898L13.0601 0.919998L13.6669 1.37507C13.7433 1.43182 13.8207 1.49004 13.8994 1.54927L14.0201 1.64L22.1001 7.7C22.5419 8.03137 22.6315 8.65817 22.3001 9.1C21.9687 9.5418 21.3419 9.6314 20.9001 9.3L20.5001 9V16.8386C20.5001 17.3657 20.5001 17.8205 20.4695 18.195C20.4372 18.5904 20.3659 18.9836 20.1731 19.362C19.8855 19.9265 19.4266 20.3854 18.8621 20.673C18.4837 20.8658 18.0905 20.9371 17.6951 20.9694C17.3206 21 16.8658 21 16.3387 21H6.6615C6.13436 21 5.6796 21 5.30503 20.9694C4.90969 20.9371 4.51647 20.8658 4.13809 20.673C3.5736 20.3854 3.11466 19.9265 2.82704 19.362C2.63425 18.9836 2.56293 18.5904 2.53063 18.195C2.50003 17.8205 2.50004 17.3657 2.50006 16.8385V9L2.10006 9.3C1.65823 9.6314 1.03143 9.5418 0.70006 9.1C0.368687 8.65817 0.45823 8.03137 0.90006 7.7L8.98006 1.64L9.10074 1.5493C9.17944 1.49008 9.25681 1.43187 9.33322 1.37513L9.94006 0.919998L10.0131 0.864898C10.2752 0.666528 10.6037 0.417818 10.991 0.315887ZM8.50006 12.6V19H14.5001V12.6C14.5001 12.0399 14.5001 11.7599 14.3911 11.546C14.2952 11.3578 14.1423 11.2049 13.9541 11.109C13.7402 11 13.4602 11 12.9001 11H10.1001C9.53996 11 9.25998 11 9.04607 11.109C8.85791 11.2049 8.70493 11.3578 8.60905 11.546C8.50006 11.7599 8.50006 12.0399 8.50006 12.6Z" fill="#E4262B"/>
</svg>
