<svg width="18" height="20" viewBox="0 0 18 20" fill="none" xmlns="http://www.w3.org/2000/svg">
<path d="M17.125 19C17.125 17.6044 17.125 16.9067 16.9528 16.3389C16.565 15.0605 15.5645 14.06 14.2861 13.6722C13.7183 13.5 13.0206 13.5 11.625 13.5H6.625C5.22944 13.5 4.53165 13.5 3.96386 13.6722C2.68545 14.06 1.68504 15.0605 1.29724 16.3389C1.125 16.9067 1.125 17.6044 1.125 19M13.625 5.5C13.625 7.98528 11.6103 10 9.125 10C6.63972 10 4.625 7.98528 4.625 5.5C4.625 3.01472 6.63972 1 9.125 1C11.6103 1 13.625 3.01472 13.625 5.5Z" stroke="#A1A1A1" stroke-width="1.5" stroke-linecap="round" stroke-linejoin="round"/>
</svg>
