<svg width="19" height="22" viewBox="0 0 19 22" fill="none" xmlns="http://www.w3.org/2000/svg">
<path d="M1.5 5.8C1.5 4.11984 1.5 3.27976 1.82698 2.63803C2.1146 2.07354 2.57354 1.6146 3.13803 1.32698C3.77976 1 4.61984 1 6.3 1H9.51178C10.2455 1 10.6124 1 10.9577 1.08289C11.2638 1.15638 11.5564 1.27759 11.8249 1.44208C12.1276 1.6276 12.387 1.88703 12.9059 2.40589L16.0941 5.59411C16.613 6.11297 16.8724 6.3724 17.0579 6.67515C17.2224 6.94356 17.3436 7.2362 17.4171 7.5423C17.5 7.88757 17.5 8.25445 17.5 8.98822V16.2C17.5 17.8802 17.5 18.7202 17.173 19.362C16.8854 19.9265 16.4265 20.3854 15.862 20.673C15.2202 21 14.3802 21 12.7 21H6.3C4.61984 21 3.77976 21 3.13803 20.673C2.57354 20.3854 2.1146 19.9265 1.82698 19.362C1.5 18.7202 1.5 17.8802 1.5 16.2V5.8Z" stroke="#A1A1A1" stroke-width="1.5" stroke-linecap="round" stroke-linejoin="round"/>
<path d="M5.5 12.8C5.5 12.52 5.5 12.38 5.5545 12.273C5.60243 12.1789 5.67892 12.1024 5.773 12.0545C5.87996 12 6.01997 12 6.3 12H12.7C12.98 12 13.12 12 13.227 12.0545C13.3211 12.1024 13.3976 12.1789 13.4455 12.273C13.5 12.38 13.5 12.52 13.5 12.8V16.2C13.5 16.48 13.5 16.62 13.4455 16.727C13.3976 16.8211 13.3211 16.8976 13.227 16.9455C13.12 17 12.98 17 12.7 17H6.3C6.01997 17 5.87996 17 5.773 16.9455C5.67892 16.8976 5.60243 16.8211 5.5545 16.727C5.5 16.62 5.5 16.48 5.5 16.2V12.8Z" stroke="#A1A1A1" stroke-width="1.5" stroke-linecap="round" stroke-linejoin="round"/>
</svg>
