<svg width="16" height="21" viewBox="0 0 16 21" fill="none" xmlns="http://www.w3.org/2000/svg">
<g clip-path="url(#clip0_89_5701)">
<path d="M13.9999 7.83333L13.9999 4.5M13.9999 4.5L10.6666 4.5M13.9999 4.5L9.9999 8.5M6.81792 11.742C6.01687 10.941 5.38435 10.0352 4.92035 9.06882C4.88044 8.98569 4.86048 8.94413 4.84515 8.89154C4.79067 8.70463 4.8298 8.47513 4.94314 8.31684C4.97504 8.2723 5.01314 8.2342 5.08935 8.15799C5.32242 7.92492 5.43895 7.80838 5.51514 7.6912C5.80247 7.24927 5.80247 6.67955 5.51514 6.23762C5.43895 6.12044 5.32242 6.0039 5.08935 5.77083L4.95943 5.64092C4.60514 5.28662 4.42799 5.10947 4.23774 5.01324C3.85937 4.82186 3.41252 4.82186 3.03415 5.01324C2.84389 5.10947 2.66675 5.28662 2.31245 5.64092L2.20736 5.74601C1.85428 6.09909 1.67774 6.27563 1.54291 6.51565C1.39329 6.78199 1.28572 7.19565 1.28663 7.50113C1.28745 7.77643 1.34085 7.96458 1.44765 8.34087C2.02163 10.3631 3.10462 12.2714 4.6966 13.8634C6.28859 15.4554 8.19683 16.5383 10.2191 17.1123C10.5954 17.2191 10.7835 17.2725 11.0588 17.2733C11.3643 17.2743 11.778 17.1667 12.0443 17.0171C12.2843 16.8822 12.4609 16.7057 12.814 16.3526L12.9191 16.2475C13.2733 15.8932 13.4505 15.7161 13.5467 15.5258C13.7381 15.1474 13.7381 14.7006 13.5467 14.3222C13.4505 14.132 13.2733 13.9548 12.9191 13.6005L12.7891 13.4706C12.5561 13.2376 12.4395 13.121 12.3223 13.0448C11.8804 12.7575 11.3107 12.7575 10.8688 13.0448C10.7516 13.121 10.6351 13.2376 10.402 13.4706C10.3258 13.5468 10.2877 13.5849 10.2431 13.6168C10.0848 13.7302 9.85533 13.7693 9.66843 13.7148C9.61584 13.6995 9.57428 13.6795 9.49115 13.6396C8.52474 13.1756 7.61897 12.5431 6.81792 11.742Z" stroke="#333333" stroke-width="1.5" stroke-linecap="round" stroke-linejoin="round"/>
</g>
<defs>
<clipPath id="clip0_89_5701">
<rect width="16" height="16" fill="white" transform="translate(0 2.5)"/>
</clipPath>
</defs>
</svg>
