<svg width="17" height="17" viewBox="0 0 17 17" fill="none" xmlns="http://www.w3.org/2000/svg">
<path d="M3.7677 0.911309C4.1691 0.994272 4.48877 1.26396 4.68738 1.62028L5.32007 2.75534C5.55312 3.1734 5.74924 3.52522 5.87731 3.83106C6.01317 4.15549 6.09386 4.47541 6.05698 4.82913C6.02009 5.18284 5.87513 5.47923 5.67525 5.76865C5.48683 6.04148 5.22234 6.34527 4.90806 6.70625L3.97801 7.77455C3.81135 7.96599 3.72801 8.06171 3.7204 8.18134C3.71278 8.30098 3.78108 8.40317 3.91768 8.60754C5.08188 10.3494 6.65094 11.919 8.39422 13.0842C8.59859 13.2208 8.70078 13.2891 8.82042 13.2815C8.94006 13.2739 9.03578 13.1905 9.22722 13.0239L10.2956 12.0938C10.6566 11.7795 10.9603 11.515 11.2332 11.3266C11.5226 11.1267 11.819 10.9817 12.1727 10.9448C12.5264 10.908 12.8463 10.9887 13.1708 11.1245C13.4766 11.2526 13.8284 11.4487 14.2464 11.6817L15.3815 12.3144C15.7379 12.5131 16.0076 12.8327 16.0905 13.2341C16.1743 13.6397 16.0507 14.0474 15.7776 14.3825C14.7867 15.5982 13.1991 16.3723 11.5337 16.0364C10.51 15.8298 9.49988 15.4858 8.27821 14.7852C5.82359 13.3774 3.62274 11.1754 2.21665 8.72361C1.51603 7.50194 1.17198 6.49187 0.965469 5.46814C0.629509 3.80269 1.4036 2.21512 2.61936 1.22423C2.95442 0.951134 3.3621 0.827479 3.7677 0.911309Z" fill="white"/>
</svg>
