<svg width="62" height="62" viewBox="0 0 62 62" fill="none" xmlns="http://www.w3.org/2000/svg">
<ellipse cx="31" cy="30.7658" rx="31" ry="30.7658" fill="#F3F4F6"/>
<ellipse cx="30.7402" cy="30.508" rx="19.8323" ry="24.6032" stroke="#FF8A00" stroke-linecap="round" stroke-dasharray="2 2"/>
<g clip-path="url(#clip0_11_28557)">
<rect y="0.983887" width="61.4803" height="61.0159" rx="30.5079" fill="#E5E7EB"/>
<g clip-path="url(#clip1_11_28557)">
<path d="M25.3255 47.4102L25.7433 67.8459L31.1081 72.1613L36.8162 67.4983L36.6446 47.909C36.6446 47.909 34.436 41.742 25.318 47.4102H25.3255Z" fill="white"/>
<path d="M31.4961 57.9455H30.1754L28.8025 52.7686H32.869L31.4961 57.9455Z" fill="#E08663"/>
<path d="M34.9881 72.5392H26.6835L30.2053 57.6055H31.4663L34.9881 72.5392Z" fill="#E08663"/>
<path d="M23.2288 31.5238C23.2288 33.7382 21.632 35.5369 19.6696 35.5369C17.7072 35.5369 16.1105 33.7382 16.1105 31.5238C16.1105 29.3094 17.7072 27.5107 19.6696 27.5107C21.632 27.5107 23.2288 29.3094 23.2288 31.5238Z" fill="#FEBDA3"/>
<path d="M45.8894 31.5238C45.8894 33.7382 44.2926 35.5369 42.3303 35.5369C40.3679 35.5369 38.7711 33.7382 38.7711 31.5238C38.7711 29.3094 40.3679 27.5107 42.3303 27.5107C44.2926 27.5107 45.8894 29.3094 45.8894 31.5238Z" fill="#FEBDA3"/>
<path d="M36.6372 38.9683H25.3553V52.7004H36.6372V38.9683Z" fill="#FED5C4"/>
<path d="M25.3553 45.1352C27.0864 45.891 28.9966 46.3142 30.9963 46.3142C32.9959 46.3142 34.9061 45.891 36.6372 45.1352V38.9683H25.3553V45.1352Z" fill="#FEBDA3"/>
<path d="M34.548 12.8794H27.8774C23.0683 12.8794 19.1698 16.8281 19.1698 21.6991V34.872C19.1698 39.7429 23.0683 43.6917 27.8774 43.6917H34.548C39.3571 43.6917 43.2556 39.7429 43.2556 34.872V21.6991C43.2556 16.8281 39.3571 12.8794 34.548 12.8794Z" fill="#FED5C4"/>
<path d="M22.3707 16.6203C22.3707 16.6203 33.466 26.7777 38.4801 25.2435C43.4943 23.7017 43.3451 29.71 43.3451 29.71C43.3451 29.71 46.6878 22.4774 45.7775 19.8549C45.0164 17.6708 45.0164 14.6175 39.6964 13.2345C34.3763 11.8515 20.3934 5.0723 22.3707 16.6203Z" fill="#59524F"/>
<path d="M19.9607 13.771C19.9607 13.771 15.3793 14.2622 16.1478 18.7061C16.9164 23.15 19.0504 30.0576 19.0504 30.0576C19.0504 30.0576 25.609 20.5124 24.3928 17.3835C23.1691 14.2547 22.408 13.1059 19.9681 13.7634L19.9607 13.771Z" fill="#59524F"/>
<path d="M28.7056 25.7952C28.7056 25.7952 30.4366 26.105 30.2277 29.0903C30.0263 32.0755 29.1085 35.0608 30.3322 35.1666C31.5559 35.2724 32.0633 34.5468 32.0633 34.5468C32.0633 34.5468 31.9588 36.8141 29.9293 36.0886C27.8923 35.3706 29.0115 31.6598 29.4219 29.9065C29.8323 28.1531 28.713 25.7876 28.713 25.7876L28.7056 25.7952Z" fill="#FEBDA3"/>
<path d="M25.3404 47.4102L31.0559 52.9121L25.1986 56.4415L25.3404 47.4102Z" fill="#E0E0E0"/>
<path d="M36.6595 47.4102L30.944 52.9121L36.8013 56.4415L36.6595 47.4102Z" fill="#E0E0E0"/>
<path d="M25.2807 47.0776C25.2807 47.4102 31.2276 73.0001 31.2276 73.0001H7V53.3882L25.2807 47.0776Z" fill="#45454F"/>
<path d="M36.7193 47.0776C36.7193 47.4102 30.7725 73.0001 30.7725 73.0001H55V53.3882L36.7193 47.0776Z" fill="#45454F"/>
</g>
</g>
<circle cx="54" cy="54.0002" r="6.66667" fill="white"/>
<path fill-rule="evenodd" clip-rule="evenodd" d="M54 60.6668C57.6819 60.6668 60.6667 57.6821 60.6667 54.0002C60.6667 50.3183 57.6819 47.3335 54 47.3335C50.3181 47.3335 47.3334 50.3183 47.3334 54.0002C47.3334 57.6821 50.3181 60.6668 54 60.6668ZM57.3713 51.4432C57.537 51.1592 57.4412 50.7947 57.1572 50.629C56.8733 50.4633 56.5088 50.5592 56.3431 50.8431L53.3561 55.9609L51.5148 54.4878C51.2581 54.2825 50.8835 54.3241 50.6781 54.5808C50.4728 54.8375 50.5144 55.2121 50.7711 55.4174L52.7208 56.9772C52.8407 57.075 52.9806 57.1451 53.1307 57.1826C53.2811 57.2203 53.4379 57.2242 53.59 57.1941C53.7397 57.1654 53.8817 57.105 54.0063 57.0171C54.1319 56.9284 54.2372 56.8134 54.3146 56.6805L57.3713 51.4432Z" fill="#22955C"/>
<defs>
<clipPath id="clip0_11_28557">
<rect y="0.983887" width="61.4803" height="61.0159" rx="30.5079" fill="white"/>
</clipPath>
<clipPath id="clip1_11_28557">
<rect width="48" height="63" fill="white" transform="translate(7 10)"/>
</clipPath>
</defs>
</svg>
