<svg width="62" height="62" viewBox="0 0 62 62" fill="none" xmlns="http://www.w3.org/2000/svg">
<g clip-path="url(#clip0_11_28551)">
<rect width="62" height="62" rx="31" fill="#E5E7EB"/>
<g clip-path="url(#clip1_11_28551)">
<path d="M25.3255 45.4102L25.7433 65.8459L31.1081 70.1613L36.8162 65.4983L36.6446 45.909C36.6446 45.909 34.436 39.742 25.318 45.4102H25.3255Z" fill="white"/>
<path d="M31.4961 55.9455H30.1754L28.8025 50.7686H32.869L31.4961 55.9455Z" fill="#E08663"/>
<path d="M34.9881 70.5392H26.6835L30.2053 55.6055H31.4663L34.9881 70.5392Z" fill="#E08663"/>
<path d="M23.2288 29.5238C23.2288 31.7382 21.632 33.5369 19.6696 33.5369C17.7072 33.5369 16.1105 31.7382 16.1105 29.5238C16.1105 27.3094 17.7072 25.5107 19.6696 25.5107C21.632 25.5107 23.2288 27.3094 23.2288 29.5238Z" fill="#FEBDA3"/>
<path d="M45.8894 29.5238C45.8894 31.7382 44.2926 33.5369 42.3303 33.5369C40.3679 33.5369 38.7711 31.7382 38.7711 29.5238C38.7711 27.3094 40.3679 25.5107 42.3303 25.5107C44.2926 25.5107 45.8894 27.3094 45.8894 29.5238Z" fill="#FEBDA3"/>
<path d="M36.6372 36.9683H25.3553V50.7004H36.6372V36.9683Z" fill="#FED5C4"/>
<path d="M25.3553 43.1352C27.0864 43.891 28.9966 44.3142 30.9963 44.3142C32.9959 44.3142 34.9061 43.891 36.6372 43.1352V36.9683H25.3553V43.1352Z" fill="#FEBDA3"/>
<path d="M34.548 10.8794H27.8774C23.0683 10.8794 19.1698 14.8281 19.1698 19.6991V32.872C19.1698 37.7429 23.0683 41.6917 27.8774 41.6917H34.548C39.3571 41.6917 43.2556 37.7429 43.2556 32.872V19.6991C43.2556 14.8281 39.3571 10.8794 34.548 10.8794Z" fill="#FED5C4"/>
<path d="M22.3707 14.6203C22.3707 14.6203 33.466 24.7777 38.4801 23.2435C43.4943 21.7017 43.3451 27.71 43.3451 27.71C43.3451 27.71 46.6878 20.4774 45.7775 17.8549C45.0164 15.6708 45.0164 12.6175 39.6964 11.2345C34.3763 9.85145 20.3934 3.0723 22.3707 14.6203Z" fill="#59524F"/>
<path d="M19.9607 11.771C19.9607 11.771 15.3793 12.2622 16.1478 16.7061C16.9164 21.15 19.0504 28.0576 19.0504 28.0576C19.0504 28.0576 25.609 18.5124 24.3928 15.3835C23.1691 12.2547 22.408 11.1059 19.9681 11.7634L19.9607 11.771Z" fill="#59524F"/>
<path d="M28.7056 23.7952C28.7056 23.7952 30.4366 24.105 30.2277 27.0903C30.0263 30.0755 29.1085 33.0608 30.3322 33.1666C31.5559 33.2724 32.0633 32.5468 32.0633 32.5468C32.0633 32.5468 31.9588 34.8141 29.9293 34.0886C27.8923 33.3706 29.0115 29.6598 29.4219 27.9065C29.8323 26.1531 28.713 23.7876 28.713 23.7876L28.7056 23.7952Z" fill="#FEBDA3"/>
<path d="M25.3404 45.4102L31.0559 50.9121L25.1986 54.4415L25.3404 45.4102Z" fill="#E0E0E0"/>
<path d="M36.6595 45.4102L30.944 50.9121L36.8013 54.4415L36.6595 45.4102Z" fill="#E0E0E0"/>
<path d="M25.2807 45.0776C25.2807 45.4102 31.2276 71.0001 31.2276 71.0001H7V51.3882L25.2807 45.0776Z" fill="#45454F"/>
<path d="M36.7193 45.0776C36.7193 45.4102 30.7725 71.0001 30.7725 71.0001H55V51.3882L36.7193 45.0776Z" fill="#45454F"/>
</g>
<circle cx="31" cy="31" r="31" fill="black" fill-opacity="0.25"/>
</g>
<circle cx="54" cy="54.0002" r="6.66667" fill="white"/>
<path fill-rule="evenodd" clip-rule="evenodd" d="M60.6667 54.0002C60.6667 57.6821 57.6819 60.6668 54 60.6668C50.3181 60.6668 47.3334 57.6821 47.3334 54.0002C47.3334 50.3183 50.3181 47.3335 54 47.3335C57.6819 47.3335 60.6667 50.3183 60.6667 54.0002ZM51.5902 51.5903C51.8691 51.3114 52.3214 51.3114 52.6004 51.5903L54 52.99L55.3997 51.5903C55.6787 51.3114 56.1309 51.3114 56.4099 51.5903C56.6888 51.8693 56.6888 52.3215 56.4099 52.6005L55.0102 54.0002L56.4099 55.3998C56.6888 55.6788 56.6888 56.1311 56.4099 56.41C56.1309 56.6889 55.6787 56.6889 55.3997 56.41L54 55.0103L52.6004 56.41C52.3214 56.6889 51.8691 56.6889 51.5902 56.41C51.3113 56.1311 51.3113 55.6788 51.5902 55.3998L52.9899 54.0002L51.5902 52.6005C51.3113 52.3215 51.3113 51.8693 51.5902 51.5903Z" fill="#E62200"/>
<defs>
<clipPath id="clip0_11_28551">
<rect width="62" height="62" rx="31" fill="white"/>
</clipPath>
<clipPath id="clip1_11_28551">
<rect width="48" height="63" fill="white" transform="translate(7 8)"/>
</clipPath>
</defs>
</svg>
