<svg width="18" height="22" viewBox="0 0 18 22" fill="none" xmlns="http://www.w3.org/2000/svg">
<path d="M0.767442 5.67907C0.767442 3.95984 0.767442 3.10022 1.10203 2.44356C1.39634 1.86595 1.86595 1.39634 2.44356 1.10203C3.10022 0.767442 3.95984 0.767442 5.67907 0.767442H8.96554C9.71637 0.767442 10.0918 0.767442 10.4451 0.85226C10.7583 0.927459 11.0578 1.05149 11.3324 1.2198C11.6422 1.40964 11.9077 1.6751 12.4386 2.20602L15.701 5.46839C16.2319 5.99932 16.4973 6.26478 16.6872 6.57457C16.8555 6.84923 16.9795 7.14867 17.0547 7.46189C17.1395 7.81519 17.1395 8.1906 17.1395 8.94144V16.3209C17.1395 18.0402 17.1395 18.8998 16.805 19.5564C16.5106 20.134 16.041 20.6037 15.4634 20.898C14.8068 21.2326 13.9471 21.2326 12.2279 21.2326H5.67907C3.95984 21.2326 3.10022 21.2326 2.44356 20.898C1.86595 20.6037 1.39634 20.134 1.10203 19.5564C0.767442 18.8998 0.767442 18.0402 0.767442 16.3209V5.67907Z" stroke="#333333" stroke-width="1.5" stroke-linecap="round" stroke-linejoin="round"/>
<path d="M4.86047 12.8419C4.86047 12.5553 4.86047 12.4121 4.91623 12.3026C4.96528 12.2063 5.04355 12.1281 5.13982 12.079C5.24926 12.0233 5.39253 12.0233 5.67907 12.0233H12.2279C12.5144 12.0233 12.6577 12.0233 12.7672 12.079C12.8634 12.1281 12.9417 12.2063 12.9907 12.3026C13.0465 12.4121 13.0465 12.5553 13.0465 12.8419V16.3209C13.0465 16.6075 13.0465 16.7507 12.9907 16.8602C12.9417 16.9565 12.8634 17.0347 12.7672 17.0838C12.6577 17.1395 12.5144 17.1395 12.2279 17.1395H5.67907C5.39253 17.1395 5.24926 17.1395 5.13982 17.0838C5.04355 17.0347 4.96528 16.9565 4.91623 16.8602C4.86047 16.7507 4.86047 16.6075 4.86047 16.3209V12.8419Z" stroke="#333333" stroke-width="1.5" stroke-linecap="round" stroke-linejoin="round"/>
</svg>
