<svg width="36" height="36" viewBox="0 0 36 36" fill="none" xmlns="http://www.w3.org/2000/svg">
<path d="M13.8575 2.85901C12.8345 3.73074 11.5627 4.25756 10.223 4.36447C7.09658 4.61396 4.61399 7.09655 4.3645 10.2229C4.25759 11.5626 3.73077 12.8345 2.85904 13.8574C0.824777 16.2445 0.824777 19.7554 2.85904 22.1425C3.73077 23.1655 4.25759 24.4373 4.3645 25.777C4.61399 28.9034 7.09658 31.386 10.223 31.6355C11.5627 31.7424 12.8345 32.2692 13.8575 33.1409C16.2445 35.1752 19.7555 35.1752 22.1426 33.1409C23.1655 32.2692 24.4373 31.7424 25.7771 31.6355C28.9034 31.386 31.386 28.9034 31.6355 25.777C31.7424 24.4373 32.2692 23.1655 33.141 22.1425C35.1752 19.7554 35.1752 16.2445 33.141 13.8574C32.2692 12.8345 31.7424 11.5626 31.6355 10.2229C31.386 7.09655 28.9034 4.61396 25.7771 4.36447C24.4373 4.25756 23.1655 3.73074 22.1426 2.85901C19.7555 0.824747 16.2445 0.824747 13.8575 2.85901Z" fill="#E4262B"/>
<path d="M13.8333 13C13.8333 13.4602 13.4602 13.8333 13 13.8333C12.5398 13.8333 12.1667 13.4602 12.1667 13C12.1667 12.5397 12.5398 12.1666 13 12.1666C13.4602 12.1666 13.8333 12.5397 13.8333 13Z" fill="#E4262B"/>
<path d="M23.8333 23C23.8333 23.4602 23.4602 23.8333 23 23.8333C22.5398 23.8333 22.1667 23.4602 22.1667 23C22.1667 22.5397 22.5398 22.1666 23 22.1666C23.4602 22.1666 23.8333 22.5397 23.8333 23Z" fill="#E4262B"/>
<path d="M13 13H13.0167M23 23H23.0167M24.6667 11.3333L11.3333 24.6666M10.223 4.36447C11.5627 4.25756 12.8345 3.73074 13.8575 2.85901C16.2445 0.824747 19.7555 0.824747 22.1426 2.85901C23.1655 3.73074 24.4373 4.25756 25.7771 4.36447C28.9034 4.61396 31.386 7.09655 31.6355 10.2229C31.7424 11.5626 32.2692 12.8345 33.141 13.8574C35.1752 16.2445 35.1752 19.7554 33.141 22.1425C32.2692 23.1655 31.7424 24.4373 31.6355 25.777C31.386 28.9034 28.9034 31.386 25.7771 31.6355C24.4373 31.7424 23.1655 32.2692 22.1426 33.1409C19.7555 35.1752 16.2445 35.1752 13.8575 33.1409C12.8345 32.2692 11.5627 31.7424 10.223 31.6355C7.09658 31.386 4.61399 28.9034 4.3645 25.777C4.25759 24.4373 3.73077 23.1655 2.85904 22.1425C0.824777 19.7554 0.824777 16.2445 2.85904 13.8574C3.73077 12.8345 4.25759 11.5626 4.3645 10.2229C4.61399 7.09655 7.09658 4.61396 10.223 4.36447ZM13.8333 13C13.8333 13.4602 13.4602 13.8333 13 13.8333C12.5398 13.8333 12.1667 13.4602 12.1667 13C12.1667 12.5397 12.5398 12.1666 13 12.1666C13.4602 12.1666 13.8333 12.5397 13.8333 13ZM23.8333 23C23.8333 23.4602 23.4602 23.8333 23 23.8333C22.5398 23.8333 22.1667 23.4602 22.1667 23C22.1667 22.5397 22.5398 22.1666 23 22.1666C23.4602 22.1666 23.8333 22.5397 23.8333 23Z" stroke="#E4262B" stroke-width="1.5" stroke-linecap="round" stroke-linejoin="round"/>
</svg>
