<svg width="20" height="20" viewBox="0 0 20 20" fill="none" xmlns="http://www.w3.org/2000/svg">
<g clip-path="url(#clip0_253_261)">
<path opacity="0.12" d="M15.1132 11.6667H3.95834L3.48959 4.16666H17.5885C17.8463 4.16666 17.9752 4.16666 18.0692 4.21856C18.1518 4.26414 18.2164 4.33638 18.2526 4.42346C18.2938 4.52262 18.2796 4.65073 18.2511 4.90695L17.7636 9.29448C17.6704 10.1333 17.6238 10.5528 17.4303 10.8693C17.2598 11.1481 17.0112 11.3707 16.7152 11.5093C16.3793 11.6667 15.9572 11.6667 15.1132 11.6667Z" fill="#333333"/>
<path d="M4.16677 11.6667H15.1132C15.9572 11.6667 16.3792 11.6667 16.7152 11.5093C17.0111 11.3707 17.2598 11.1481 17.4303 10.8693C17.6238 10.5528 17.6704 10.1333 17.7636 9.29448L18.2511 4.90695C18.2795 4.65073 18.2938 4.52262 18.2526 4.42346C18.2164 4.33638 18.1517 4.26414 18.0692 4.21856C17.9752 4.16666 17.8463 4.16666 17.5885 4.16666H3.75011M1.66666 1.66666H2.70702C2.92754 1.66666 3.0378 1.66666 3.12406 1.7086C3.2 1.74552 3.26294 1.80464 3.30452 1.87813C3.35176 1.96161 3.35864 2.07166 3.37239 2.29175L4.12759 14.3749C4.14134 14.595 4.14822 14.7051 4.19546 14.7885C4.23704 14.862 4.29998 14.9211 4.37592 14.9581C4.46218 15 4.57244 15 4.79296 15H15.8333M6.24999 17.9167H6.25832M13.75 17.9167H13.7583M6.66666 17.9167C6.66666 18.1468 6.48011 18.3333 6.24999 18.3333C6.01987 18.3333 5.83332 18.1468 5.83332 17.9167C5.83332 17.6865 6.01987 17.5 6.24999 17.5C6.48011 17.5 6.66666 17.6865 6.66666 17.9167ZM14.1667 17.9167C14.1667 18.1468 13.9801 18.3333 13.75 18.3333C13.5199 18.3333 13.3333 18.1468 13.3333 17.9167C13.3333 17.6865 13.5199 17.5 13.75 17.5C13.9801 17.5 14.1667 17.6865 14.1667 17.9167Z" stroke="#333333" stroke-width="1.5" stroke-linecap="round" stroke-linejoin="round"/>
</g>
<defs>
<clipPath id="clip0_253_261">
<rect width="20" height="20" fill="white"/>
</clipPath>
</defs>
</svg>
